<svg xmlns="http://www.w3.org/2000/svg" xmlns:xlink="http://www.w3.org/1999/xlink" version="1.1" width="1000" height="1000" viewBox="0 0 1000 1000" xml:space="preserve">
<desc>Created with Fabric.js 3.5.0</desc>
<defs>
</defs>
<rect x="0" y="0" width="100%" height="100%" fill=none/>
<g transform="matrix(0.2083 0 0 0.2292 50.4537 50.9553)" id="62846">
<path style="stroke: none; stroke-width: 1; stroke-dasharray: none; stroke-linecap: butt; stroke-dashoffset: 0; stroke-linejoin: miter; stroke-miterlimit: 4; is-custom-font: none; font-file-url: none; fill: rgb(0,128,0); fill-rule: nonzero; opacity: 1;" vector-effect="non-scaling-stroke" transform=" translate(-25, -25)" d="M 49 17 c 0 -0.55 -0.45 -1 -1 -1 h -13 c -0.55 0 -1 -0.45 -1 -1 v -13 c 0 -0.55 -0.45 -1 -1 -1 h -16 c -0.55 0 -1 0.45 -1 1 v 13 c 0 0.55 -0.45 1 -1 1 h -13 c -0.55 0 -1 0.45 -1 1 v 16 c 0 0.55 0.45 1 1 1 h 13 c 0.55 0 1 0.45 1 1 v 13 c 0 0.55 0.45 1 1 1 h 16 c 0.55 0 1 -0.45 1 -1 v -13 c 0 -0.55 0.45 -1 1 -1 h 13 c 0.55 0 1 -0.45 1 -1 v -16 z" stroke-linecap="round"/>
</g>
</svg>