<svg width="15" height="15" xmlns="http://www.w3.org/2000/svg" viewBox="0 0 910.64 636.33"><defs><style>.cls-1{fill:#0000cd;}.cls-2,.cls-3{fill:#fff;}.cls-2,.cls-4{stroke:#000;}.cls-2,.cls-4,.cls-5{stroke-linecap:round;stroke-linejoin:round;}.cls-2{stroke-width:18.46px;}.cls-3,.cls-5{stroke:#fff;}.cls-3{stroke-miterlimit:4.81;stroke-width:3.08px;}.cls-4,.cls-5{fill:none;}.cls-4{stroke-width:33.33px;}.cls-5{stroke-width:23.33px;}</style></defs><g id="Layer_2" data-name="Layer 2"><g id="Layer_1-2" data-name="Layer 1"><rect class="cls-1" width="910.64" height="636.33"/><g id="SVGRepo_tracerCarrier" data-name="SVGRepo tracerCarrier"><path class="cls-2" d="M878.2,91.18H775.85a100.34,100.34,0,0,0-196.63,0H476.87a20.07,20.07,0,0,0,0,40.14H579.22A100.37,100.37,0,0,0,610,185.38,181,181,0,0,0,499.16,352.05V496.94A49.15,49.15,0,0,0,548.26,546h69.07V566.1a60.21,60.21,0,0,0,120.41,0V546H809a49.15,49.15,0,0,0,49.1-49.09V352.05A181,181,0,0,0,745.75,184.74a100.33,100.33,0,0,0,30.1-53.42H878.2a20.07,20.07,0,0,0,0-40.14ZM677.53,51.05a60.2,60.2,0,1,1-60.2,60.2A60.27,60.27,0,0,1,677.53,51.05ZM697.6,566.1a20.07,20.07,0,0,1-40.13,0V485.83a20.07,20.07,0,1,1,40.13,0V566.1Zm120.4-214V496.94a9,9,0,0,1-9,9h-71.3V485.83a60.21,60.21,0,0,0-120.41,0V505.9H548.26a9,9,0,0,1-9-9V352.05c0-76.88,62.5-139.86,139.35-140.46C755.5,212.19,818,275.17,818,352.05Z"/></g><g id="SVGRepo_iconCarrier" data-name="SVGRepo iconCarrier"><path class="cls-3" d="M878.2,91.18H775.85a100.34,100.34,0,0,0-196.63,0H476.87a20.07,20.07,0,0,0,0,40.14H579.22A100.37,100.37,0,0,0,610,185.38,181,181,0,0,0,499.16,352.05V496.94A49.15,49.15,0,0,0,548.26,546h69.07V566.1a60.21,60.21,0,0,0,120.41,0V546H809a49.15,49.15,0,0,0,49.1-49.09V352.05A181,181,0,0,0,745.75,184.74a100.33,100.33,0,0,0,30.1-53.42H878.2a20.07,20.07,0,0,0,0-40.14ZM677.53,51.05a60.2,60.2,0,1,1-60.2,60.2A60.27,60.27,0,0,1,677.53,51.05ZM697.6,566.1a20.07,20.07,0,0,1-40.13,0V485.83a20.07,20.07,0,1,1,40.13,0V566.1Zm120.4-214V496.94a9,9,0,0,1-9,9h-71.3V485.83a60.21,60.21,0,0,0-120.41,0V505.9H548.26a9,9,0,0,1-9-9V352.05c0-76.88,62.5-139.86,139.35-140.46C755.5,212.19,818,275.17,818,352.05Z"/></g></g><g id="Layer_2-2" data-name="Layer 2"><g id="SVGRepo_tracerCarrier-2" data-name="SVGRepo tracerCarrier"><path class="cls-4" d="M241.56,51.05a419.27,419.27,0,0,1,72.92,6.11A331.89,331.89,0,0,1,397,82.44a80.57,80.57,0,0,1,37.22,27.78,78.2,78.2,0,0,1,8.75,29.3C451.84,183,461.15,268.41,463.78,289V523.41H426.42v37.36A31.94,31.94,0,1,1,362.67,565a32.86,32.86,0,0,1,0-4.21V523.41H120.45v37.36A31.94,31.94,0,1,1,56.7,565a32.86,32.86,0,0,1,0-4.21V523.41H19.34V289c2.22-20.56,11.53-105.42,20.42-149.45a78.2,78.2,0,0,1,8.75-29.3A80.52,80.52,0,0,1,85.73,82.44a331.89,331.89,0,0,1,82.5-25.28A419.16,419.16,0,0,1,241.56,51.05ZM95.17,146.19a19.6,19.6,0,0,0-18.75,16.95L58.78,291.19A19.59,19.59,0,0,0,74.9,313.27h330a19.72,19.72,0,0,0,19.72-19.16,16.62,16.62,0,0,0,0-2.64L407,163.41a19.58,19.58,0,0,0-19.45-16.94H95.87Zm-6.39,242.5a33.47,33.47,0,1,0,33.34,33.61V422A33.34,33.34,0,0,0,88.78,388.69Zm305.56,0a33.48,33.48,0,1,0,33.47,33.47V422a33.19,33.19,0,0,0-33.05-33.33Z"/><line class="cls-4" x1="56.7" y1="523.41" x2="426.42" y2="523.41"/><line class="cls-4" x1="125.31" y1="106.33" x2="356.98" y2="106.33"/></g><g id="SVGRepo_iconCarrier-2" data-name="SVGRepo iconCarrier"><path class="cls-5" d="M241.56,51.05a419.27,419.27,0,0,1,72.92,6.11A331.89,331.89,0,0,1,397,82.44a80.57,80.57,0,0,1,37.22,27.78,78.2,78.2,0,0,1,8.75,29.3C451.84,183,461.15,268.41,463.78,289V523.41H426.42v37.36A31.94,31.94,0,1,1,362.67,565a32.86,32.86,0,0,1,0-4.21V523.41H120.45v37.36A31.94,31.94,0,1,1,56.7,565a32.86,32.86,0,0,1,0-4.21V523.41H19.34V289c2.22-20.56,11.53-105.42,20.42-149.45a78.2,78.2,0,0,1,8.75-29.3A80.52,80.52,0,0,1,85.73,82.44a331.89,331.89,0,0,1,82.5-25.28A419.16,419.16,0,0,1,241.56,51.05ZM95.17,146.19a19.6,19.6,0,0,0-18.75,16.95L58.78,291.19A19.59,19.59,0,0,0,74.9,313.27h330a19.72,19.72,0,0,0,19.72-19.16,16.62,16.62,0,0,0,0-2.64L407,163.41a19.58,19.58,0,0,0-19.45-16.94H95.87Zm-6.39,242.5a33.47,33.47,0,1,0,33.34,33.61V422A33.34,33.34,0,0,0,88.78,388.69Zm305.56,0a33.48,33.48,0,1,0,33.47,33.47V422a33.19,33.19,0,0,0-33.05-33.33Z"/><line class="cls-5" x1="56.7" y1="523.41" x2="426.42" y2="523.41"/><line class="cls-5" x1="125.31" y1="106.33" x2="356.98" y2="106.33"/></g></g></g></svg>