<svg xmlns="http://www.w3.org/2000/svg" viewBox="0 0 11.53 7.94"><defs><style>.cls-1{fill:#0000cd;}.cls-2{fill:#fff;stroke-width:0.04px;}.cls-2,.cls-3{stroke:#000;}.cls-2,.cls-3,.cls-4{stroke-linecap:round;stroke-linejoin:round;}.cls-3,.cls-4{fill:none;}.cls-3{stroke-width:0.49px;}.cls-4{stroke:#fff;stroke-width:0.4px;}</style></defs><g id="Layer_2" data-name="Layer 2"><g id="Layer_2-2" data-name="Layer 2"><rect class="cls-1" width="11.53" height="7.94" rx="0.85"/><g id="SVGRepo_tracerCarrier" data-name="SVGRepo tracerCarrier"><path class="cls-2" d="M11.14,1.14H9.86a1.25,1.25,0,0,0-2.45,0H6.13a.25.25,0,0,0,0,.5H7.41a1.22,1.22,0,0,0,.38.67A2.24,2.24,0,0,0,6.41,4.39V6.2A.61.61,0,0,0,7,6.81h.86v.25a.75.75,0,0,0,1.5,0V6.81h.89a.61.61,0,0,0,.62-.61V4.39a2.27,2.27,0,0,0-.66-1.59,2.52,2.52,0,0,0-.75-.5,1.19,1.19,0,0,0,.38-.66h1.28a.25.25,0,0,0,0-.5ZM8.63.64a.75.75,0,0,1,0,1.5.75.75,0,1,1,0-1.5Zm.25,6.42a.25.25,0,1,1-.5,0v-1a.25.25,0,0,1,.5,0v1Zm1.5-2.67V6.2a.11.11,0,0,1-.11.11H9.38V6.06a.75.75,0,0,0-1.5,0v.25H7a.11.11,0,0,1-.11-.11V4.39a1.74,1.74,0,1,1,3.47,0Z"/></g><g id="SVGRepo_tracerCarrier-2" data-name="SVGRepo tracerCarrier"><path class="cls-3" d="M3.19.64A5.49,5.49,0,0,1,4.1.71a4,4,0,0,1,1,.32,1.08,1.08,0,0,1,.47.34,1.21,1.21,0,0,1,.11.37c.11.54.22,1.61.26,1.86V6.53H5.5V7a.4.4,0,0,1-.37.43.39.39,0,0,1-.42-.37.06.06,0,0,1,0-.06V6.53h-3V7a.4.4,0,0,1-.37.43.39.39,0,0,1-.42-.37V6.53H.42V3.6c0-.25.15-1.31.26-1.86a1,1,0,0,1,.11-.37A1,1,0,0,1,1.25,1a4.11,4.11,0,0,1,1-.32A5.58,5.58,0,0,1,3.19.64ZM1.37,1.82A.25.25,0,0,0,1.14,2L.92,3.63a.25.25,0,0,0,.2.28H5.23a.25.25,0,0,0,.25-.24v0L5.26,2A.25.25,0,0,0,5,1.83H1.37Zm-.08,3a.41.41,0,0,0-.42.41.42.42,0,0,0,.84,0h0A.41.41,0,0,0,1.29,4.85Zm3.81,0a.42.42,0,0,0-.42.42.42.42,0,0,0,.84,0h0a.42.42,0,0,0-.41-.41Z"/><line class="cls-3" x1="0.89" y1="6.53" x2="5.5" y2="6.53"/><line class="cls-3" x1="1.74" y1="1.33" x2="4.63" y2="1.33"/></g><g id="SVGRepo_iconCarrier" data-name="SVGRepo iconCarrier"><path class="cls-4" d="M3.19.64A5.49,5.49,0,0,1,4.1.71a4,4,0,0,1,1,.32,1.08,1.08,0,0,1,.47.34,1.21,1.21,0,0,1,.11.37c.11.54.22,1.61.26,1.86V6.53H5.5V7a.4.4,0,0,1-.37.43.39.39,0,0,1-.42-.37.06.06,0,0,1,0-.06V6.53h-3V7a.4.4,0,0,1-.37.43.39.39,0,0,1-.42-.37V6.53H.42V3.6c0-.25.15-1.31.26-1.86a1,1,0,0,1,.11-.37A1,1,0,0,1,1.25,1a4.11,4.11,0,0,1,1-.32A5.58,5.58,0,0,1,3.19.64ZM1.37,1.82A.25.25,0,0,0,1.14,2L.92,3.63a.25.25,0,0,0,.2.28H5.23a.25.25,0,0,0,.25-.24v0L5.26,2A.25.25,0,0,0,5,1.83H1.37Zm-.08,3a.41.41,0,0,0-.42.41.42.42,0,0,0,.84,0h0A.41.41,0,0,0,1.29,4.85Zm3.81,0a.42.42,0,0,0-.42.42.42.42,0,0,0,.84,0h0a.42.42,0,0,0-.41-.41Z"/><line class="cls-4" x1="0.89" y1="6.53" x2="5.5" y2="6.53"/><line class="cls-4" x1="1.74" y1="1.33" x2="4.63" y2="1.33"/></g></g></g></svg>