<svg width="12" height="50" xmlns="http://www.w3.org/2000/svg" viewBox="0 0 11.53 7.94"><defs><style>.cls-1{fill:#0000cd;}.cls-2{fill:#fff;stroke-width:0.04px;}.cls-2,.cls-3{stroke:#000;}.cls-2,.cls-3,.cls-4{stroke-linecap:round;stroke-linejoin:round;}.cls-3,.cls-4{fill:none;}.cls-3{stroke-width:0.49px;}.cls-4{stroke:#fff;stroke-width:0.4px;}</style></defs><g id="Layer_2" data-name="Layer 2"><rect class="cls-1" width="11.53" height="7.94" rx="0.85"/><g id="SVGRepo_tracerCarrier" data-name="SVGRepo tracerCarrier"><path class="cls-2" d="M1200,396.73h-1.27a1.26,1.26,0,0,0-2.46,0H1195a.25.25,0,0,0,0,.5h1.27a1.3,1.3,0,0,0,.39.67,2.24,2.24,0,0,0-1.38,2.08v1.81a.61.61,0,0,0,.61.61h.86v.25a.75.75,0,0,0,1.5,0v-.25h.89a.61.61,0,0,0,.61-.61V400a2.26,2.26,0,0,0-.65-1.59,2.52,2.52,0,0,0-.75-.5,1.26,1.26,0,0,0,.38-.66H1200a.25.25,0,0,0,0-.5Zm-2.5-.5a.75.75,0,1,1-.75.75A.75.75,0,0,1,1197.49,396.23Zm.25,6.42a.25.25,0,0,1-.5,0v-1a.25.25,0,1,1,.5,0v1Zm1.5-2.67v1.81a.11.11,0,0,1-.11.11h-.89v-.25a.75.75,0,1,0-1.5,0v.25h-.86a.11.11,0,0,1-.11-.11V400a1.74,1.74,0,1,1,3.47,0Z" transform="translate(-1188.86 -395.59)"/></g><g id="SVGRepo_tracerCarrier-2" data-name="SVGRepo tracerCarrier"><path class="cls-3" d="M1192.05,396.23a5.49,5.49,0,0,1,.91.07,4.11,4.11,0,0,1,1,.32,1.08,1.08,0,0,1,.47.34,1,1,0,0,1,.1.37c.12.54.23,1.61.26,1.86v2.93h-.46v.46a.4.4,0,0,1-.8.06v-.52h-3v.46a.4.4,0,0,1-.37.43.39.39,0,0,1-.42-.37v-.52h-.47v-2.93c0-.25.14-1.31.26-1.86a1,1,0,0,1,.1-.37,1.08,1.08,0,0,1,.47-.34,4.11,4.11,0,0,1,1-.32A5.58,5.58,0,0,1,1192.05,396.23Zm-1.82,1.18a.27.27,0,0,0-.24.21l-.22,1.6a.25.25,0,0,0,.2.28h4.12a.26.26,0,0,0,.25-.24v0l-.22-1.6a.25.25,0,0,0-.25-.21h-3.64Zm-.08,3a.42.42,0,1,0,.41.42h0A.41.41,0,0,0,1190.15,400.44Zm3.81,0a.42.42,0,1,0,.42.42h0a.42.42,0,0,0-.42-.41Z" transform="translate(-1188.86 -395.59)"/><line class="cls-3" x1="0.89" y1="6.53" x2="5.5" y2="6.53"/><line class="cls-3" x1="1.74" y1="1.33" x2="4.63" y2="1.33"/></g><g id="SVGRepo_iconCarrier" data-name="SVGRepo iconCarrier"><path class="cls-4" d="M1192.05,396.23a5.49,5.49,0,0,1,.91.07,4.11,4.11,0,0,1,1,.32,1.08,1.08,0,0,1,.47.34,1,1,0,0,1,.1.37c.12.54.23,1.61.26,1.86v2.93h-.46v.46a.4.4,0,0,1-.8.06v-.52h-3v.46a.4.4,0,0,1-.37.43.39.39,0,0,1-.42-.37v-.52h-.47v-2.93c0-.25.14-1.31.26-1.86a1,1,0,0,1,.1-.37,1.08,1.08,0,0,1,.47-.34,4.11,4.11,0,0,1,1-.32A5.58,5.58,0,0,1,1192.05,396.23Zm-1.82,1.18a.27.27,0,0,0-.24.21l-.22,1.6a.25.25,0,0,0,.2.28h4.12a.26.26,0,0,0,.25-.24v0l-.22-1.6a.25.25,0,0,0-.25-.21h-3.64Zm-.08,3a.42.42,0,1,0,.41.42h0A.41.41,0,0,0,1190.15,400.44Zm3.81,0a.42.42,0,1,0,.42.42h0a.42.42,0,0,0-.42-.41Z" transform="translate(-1188.86 -395.59)"/><line class="cls-4" x1="0.89" y1="6.53" x2="5.5" y2="6.53"/><line class="cls-4" x1="1.74" y1="1.33" x2="4.63" y2="1.33"/></g></g></svg>